<svg width="526" height="246" viewBox="0 0 526 246" fill="none" xmlns="http://www.w3.org/2000/svg">
<g filter="url(#filter0_f_42_8354)">
<path d="M408.454 155.88C415.843 145.143 423.776 148.692 432.818 141.681C439.883 136.33 443.399 121.784 440.06 111.086C431.843 84.7608 411.949 93.4401 403.35 83.8975C382.877 61.1768 353.663 72.2003 344.014 82.2002C336.964 89.5075 332.518 88.7128 324.369 88.1124C299.358 86.2683 287.073 107.256 286.988 125.753C286.947 134.891 287.568 160.584 312.817 164.681C329.108 167.324 335.031 161.111 352.61 171.051C365.028 178.072 392.506 179.057 408.454 155.88Z" fill="#4C5AFF" fill-opacity="0.4"/>
</g>
<g clip-path="url(#clip0_42_8354)">
<rect x="116.965" y="33.7631" width="253.462" height="58.9612" rx="4.8233" fill="#E8EAFF"/>
<path d="M424.615 -6.19198L315.926 102.496L338.934 125.505L447.623 16.8162L424.615 -6.19198Z" fill="url(#paint0_linear_42_8354)"/>
<path d="M335.384 -6.19198L226.695 102.496L249.703 125.505L358.392 16.8162L335.384 -6.19198Z" fill="url(#paint1_linear_42_8354)"/>
<path d="M246.153 -6.19198L137.464 102.496L160.472 125.505L269.161 16.8162L246.153 -6.19198Z" fill="url(#paint2_linear_42_8354)"/>
<path d="M156.922 -6.19198L48.2332 102.496L71.2414 125.505L179.93 16.8162L156.922 -6.19198Z" fill="url(#paint3_linear_42_8354)"/>
</g>
<rect x="117.116" y="33.9139" width="253.161" height="58.6598" rx="4.67257" stroke="#4C5AFF" stroke-width="0.301456"/>
<path d="M410.291 141.843H502.518C508.596 141.843 513.522 146.77 513.523 152.848C513.523 158.925 508.596 163.853 502.518 163.853H410.291C404.214 163.853 399.286 158.925 399.286 152.848C399.287 146.77 404.214 141.843 410.291 141.843Z" fill="white"/>
<path d="M410.291 141.843H502.518C508.596 141.843 513.522 146.77 513.523 152.848C513.523 158.925 508.596 163.853 502.518 163.853H410.291C404.214 163.853 399.286 158.925 399.286 152.848C399.287 146.77 404.214 141.843 410.291 141.843Z" stroke="#4C5AFF" stroke-width="0.317147"/>
<path d="M409.417 156.348L407.594 149.89H408.852L410.016 154.636H410.076L411.318 149.89H412.463L413.708 154.639H413.765L414.929 149.89H416.187L414.364 156.348H413.21L411.917 151.817H411.867L410.571 156.348H409.417ZM423.057 153.119C423.057 153.815 422.926 154.411 422.665 154.907C422.407 155.401 422.054 155.779 421.606 156.042C421.16 156.305 420.655 156.436 420.089 156.436C419.524 156.436 419.017 156.305 418.569 156.042C418.123 155.777 417.77 155.398 417.51 154.904C417.251 154.408 417.122 153.813 417.122 153.119C417.122 152.423 417.251 151.828 417.51 151.334C417.77 150.838 418.123 150.458 418.569 150.196C419.017 149.933 419.524 149.801 420.089 149.801C420.655 149.801 421.16 149.933 421.606 150.196C422.054 150.458 422.407 150.838 422.665 151.334C422.926 151.828 423.057 152.423 423.057 153.119ZM421.88 153.119C421.88 152.629 421.804 152.216 421.65 151.88C421.499 151.541 421.288 151.286 421.019 151.113C420.75 150.939 420.44 150.852 420.089 150.852C419.738 150.852 419.428 150.939 419.159 151.113C418.89 151.286 418.678 151.541 418.525 151.88C418.374 152.216 418.298 152.629 418.298 153.119C418.298 153.609 418.374 154.023 418.525 154.361C418.678 154.698 418.89 154.953 419.159 155.128C419.428 155.3 419.738 155.386 420.089 155.386C420.44 155.386 420.75 155.3 421.019 155.128C421.288 154.953 421.499 154.698 421.65 154.361C421.804 154.023 421.88 153.609 421.88 153.119ZM424.797 156.348V149.89H427.219C427.715 149.89 428.131 149.976 428.467 150.148C428.806 150.321 429.061 150.562 429.234 150.874C429.408 151.183 429.496 151.543 429.496 151.955C429.496 152.369 429.407 152.729 429.231 153.034C429.056 153.336 428.799 153.571 428.458 153.737C428.117 153.901 427.699 153.983 427.203 153.983H425.478V153.012H427.045C427.335 153.012 427.573 152.972 427.758 152.892C427.943 152.81 428.08 152.691 428.168 152.536C428.258 152.378 428.304 152.184 428.304 151.955C428.304 151.726 428.258 151.531 428.168 151.369C428.078 151.205 427.94 151.081 427.755 150.997C427.57 150.91 427.331 150.867 427.039 150.867H425.967V156.348H424.797ZM428.133 153.422L429.732 156.348H428.426L426.856 153.422H428.133ZM431.207 156.348V149.89H432.377V152.857H432.455L434.975 149.89H436.404L433.906 152.788L436.426 156.348H435.019L433.092 153.579L432.377 154.424V156.348H431.207ZM441.858 149.89V156.348H440.688V149.89H441.858ZM449.066 149.89V156.348H448.025L444.982 151.949H444.929V156.348H443.759V149.89H444.806L447.846 154.292H447.902V149.89H449.066ZM453.812 156.348V149.89H456.234C456.73 149.89 457.146 149.982 457.483 150.167C457.821 150.352 458.077 150.607 458.249 150.93C458.423 151.252 458.511 151.618 458.511 152.028C458.511 152.442 458.423 152.81 458.249 153.132C458.074 153.453 457.817 153.706 457.476 153.891C457.136 154.074 456.716 154.166 456.218 154.166H454.613V153.204H456.06C456.351 153.204 456.588 153.154 456.773 153.053C456.958 152.952 457.095 152.813 457.183 152.636C457.274 152.46 457.319 152.257 457.319 152.028C457.319 151.799 457.274 151.597 457.183 151.422C457.095 151.248 456.957 151.112 456.77 151.016C456.585 150.917 456.346 150.867 456.054 150.867H454.982V156.348H453.812ZM460.161 156.348V149.89H462.583C463.079 149.89 463.495 149.976 463.832 150.148C464.17 150.321 464.426 150.562 464.598 150.874C464.773 151.183 464.86 151.543 464.86 151.955C464.86 152.369 464.772 152.729 464.595 153.034C464.42 153.336 464.163 153.571 463.822 153.737C463.482 153.901 463.063 153.983 462.567 153.983H460.842V153.012H462.41C462.7 153.012 462.937 152.972 463.122 152.892C463.307 152.81 463.444 152.691 463.532 152.536C463.623 152.378 463.668 152.184 463.668 151.955C463.668 151.726 463.623 151.531 463.532 151.369C463.442 151.205 463.304 151.081 463.119 150.997C462.934 150.91 462.696 150.867 462.403 150.867H461.331V156.348H460.161ZM463.498 153.422L465.096 156.348H463.791L462.22 153.422H463.498ZM472.342 153.119C472.342 153.815 472.212 154.411 471.951 154.907C471.692 155.401 471.339 155.779 470.891 156.042C470.446 156.305 469.94 156.436 469.374 156.436C468.809 156.436 468.302 156.305 467.855 156.042C467.409 155.777 467.056 155.398 466.795 154.904C466.536 154.408 466.407 153.813 466.407 153.119C466.407 152.423 466.536 151.828 466.795 151.334C467.056 150.838 467.409 150.458 467.855 150.196C468.302 149.933 468.809 149.801 469.374 149.801C469.94 149.801 470.446 149.933 470.891 150.196C471.339 150.458 471.692 150.838 471.951 151.334C472.212 151.828 472.342 152.423 472.342 153.119ZM471.166 153.119C471.166 152.629 471.089 152.216 470.935 151.88C470.784 151.541 470.574 151.286 470.305 151.113C470.036 150.939 469.726 150.852 469.374 150.852C469.023 150.852 468.713 150.939 468.444 151.113C468.175 151.286 467.964 151.541 467.81 151.88C467.659 152.216 467.583 152.629 467.583 153.119C467.583 153.609 467.659 154.023 467.81 154.361C467.964 154.698 468.175 154.953 468.444 155.128C468.713 155.3 469.023 155.386 469.374 155.386C469.726 155.386 470.036 155.3 470.305 155.128C470.574 154.953 470.784 154.698 470.935 154.361C471.089 154.023 471.166 153.609 471.166 153.119ZM478.409 151.952C478.356 151.782 478.284 151.629 478.191 151.495C478.101 151.358 477.991 151.242 477.863 151.145C477.737 151.048 477.592 150.976 477.428 150.927C477.264 150.877 477.085 150.852 476.892 150.852C476.545 150.852 476.236 150.939 475.965 151.113C475.694 151.288 475.48 151.544 475.325 151.883C475.171 152.219 475.094 152.629 475.094 153.113C475.094 153.6 475.171 154.013 475.325 154.352C475.478 154.69 475.692 154.948 475.965 155.124C476.238 155.299 476.556 155.386 476.917 155.386C477.245 155.386 477.529 155.323 477.769 155.197C478.01 155.071 478.196 154.892 478.327 154.661C478.457 154.428 478.522 154.154 478.522 153.841L478.787 153.882H477.034V152.968H479.654V153.743C479.654 154.296 479.537 154.774 479.301 155.178C479.066 155.582 478.742 155.893 478.33 156.112C477.918 156.328 477.445 156.436 476.911 156.436C476.316 156.436 475.793 156.303 475.344 156.036C474.896 155.767 474.546 155.385 474.293 154.891C474.043 154.395 473.918 153.806 473.918 153.125C473.918 152.604 473.992 152.138 474.139 151.728C474.288 151.318 474.496 150.97 474.763 150.684C475.03 150.396 475.344 150.178 475.703 150.029C476.063 149.877 476.454 149.801 476.876 149.801C477.234 149.801 477.567 149.854 477.876 149.959C478.185 150.062 478.459 150.209 478.699 150.401C478.941 150.592 479.139 150.819 479.295 151.082C479.45 151.345 479.552 151.635 479.601 151.952H478.409ZM481.42 156.348V149.89H483.842C484.338 149.89 484.754 149.976 485.091 150.148C485.429 150.321 485.684 150.562 485.857 150.874C486.031 151.183 486.119 151.543 486.119 151.955C486.119 152.369 486.03 152.729 485.854 153.034C485.679 153.336 485.422 153.571 485.081 153.737C484.741 153.901 484.322 153.983 483.826 153.983H482.101V153.012H483.668C483.958 153.012 484.196 152.972 484.381 152.892C484.566 152.81 484.703 152.691 484.791 152.536C484.881 152.378 484.927 152.184 484.927 151.955C484.927 151.726 484.881 151.531 484.791 151.369C484.701 151.205 484.563 151.081 484.378 150.997C484.193 150.91 483.954 150.867 483.662 150.867H482.59V156.348H481.42ZM484.756 153.422L486.355 156.348H485.05L483.479 153.422H484.756ZM487.83 156.348V149.89H492.03V150.87H489V152.624H491.813V153.605H489V155.367H492.055V156.348H487.83ZM497.368 151.665C497.338 151.39 497.214 151.175 496.996 151.022C496.779 150.868 496.497 150.792 496.151 150.792C495.907 150.792 495.698 150.828 495.523 150.902C495.349 150.976 495.215 151.075 495.123 151.202C495.03 151.328 494.983 151.472 494.981 151.634C494.981 151.768 495.011 151.885 495.072 151.984C495.135 152.082 495.22 152.167 495.328 152.236C495.435 152.303 495.554 152.36 495.684 152.406C495.814 152.452 495.946 152.491 496.078 152.523L496.684 152.674C496.927 152.731 497.162 152.808 497.387 152.904C497.614 153.001 497.817 153.123 497.995 153.27C498.176 153.417 498.319 153.595 498.424 153.803C498.529 154.011 498.582 154.255 498.582 154.535C498.582 154.913 498.485 155.246 498.292 155.534C498.098 155.82 497.819 156.044 497.453 156.206C497.089 156.366 496.649 156.446 496.132 156.446C495.629 156.446 495.193 156.368 494.823 156.212C494.455 156.057 494.167 155.83 493.959 155.531C493.753 155.233 493.642 154.869 493.625 154.44H494.776C494.793 154.665 494.862 154.852 494.984 155.002C495.106 155.151 495.264 155.262 495.46 155.336C495.658 155.409 495.878 155.446 496.122 155.446C496.377 155.446 496.599 155.408 496.791 155.333C496.984 155.255 497.136 155.148 497.245 155.011C497.354 154.872 497.41 154.71 497.412 154.525C497.41 154.357 497.36 154.218 497.264 154.109C497.167 153.998 497.031 153.905 496.857 153.832C496.685 153.756 496.483 153.689 496.252 153.63L495.517 153.441C494.985 153.304 494.564 153.097 494.255 152.819C493.948 152.54 493.795 152.169 493.795 151.706C493.795 151.326 493.898 150.992 494.104 150.707C494.312 150.421 494.595 150.199 494.952 150.041C495.31 149.881 495.714 149.801 496.166 149.801C496.625 149.801 497.026 149.881 497.371 150.041C497.718 150.199 497.99 150.418 498.188 150.7C498.385 150.98 498.487 151.301 498.494 151.665H497.368ZM503.769 151.665C503.74 151.39 503.616 151.175 503.397 151.022C503.18 150.868 502.899 150.792 502.552 150.792C502.308 150.792 502.099 150.828 501.924 150.902C501.75 150.976 501.616 151.075 501.524 151.202C501.431 151.328 501.384 151.472 501.382 151.634C501.382 151.768 501.412 151.885 501.473 151.984C501.536 152.082 501.622 152.167 501.729 152.236C501.836 152.303 501.955 152.36 502.085 152.406C502.215 152.452 502.347 152.491 502.479 152.523L503.085 152.674C503.329 152.731 503.563 152.808 503.788 152.904C504.015 153.001 504.218 153.123 504.397 153.27C504.577 153.417 504.72 153.595 504.825 153.803C504.931 154.011 504.983 154.255 504.983 154.535C504.983 154.913 504.886 155.246 504.693 155.534C504.5 155.82 504.22 156.044 503.854 156.206C503.49 156.366 503.05 156.446 502.533 156.446C502.03 156.446 501.594 156.368 501.224 156.212C500.856 156.057 500.568 155.83 500.36 155.531C500.154 155.233 500.043 154.869 500.026 154.44H501.177C501.194 154.665 501.263 154.852 501.385 155.002C501.507 155.151 501.666 155.262 501.861 155.336C502.059 155.409 502.28 155.446 502.523 155.446C502.778 155.446 503.001 155.408 503.192 155.333C503.385 155.255 503.537 155.148 503.646 155.011C503.755 154.872 503.811 154.71 503.813 154.525C503.811 154.357 503.762 154.218 503.665 154.109C503.568 153.998 503.433 153.905 503.258 153.832C503.086 153.756 502.884 153.689 502.653 153.63L501.918 153.441C501.386 153.304 500.966 153.097 500.657 152.819C500.35 152.54 500.196 152.169 500.196 151.706C500.196 151.326 500.299 150.992 500.505 150.707C500.713 150.421 500.996 150.199 501.353 150.041C501.711 149.881 502.116 149.801 502.568 149.801C503.026 149.801 503.427 149.881 503.772 150.041C504.119 150.199 504.391 150.418 504.589 150.7C504.787 150.98 504.888 151.301 504.895 151.665H503.769Z" fill="#4C5AFF"/>
<path d="M165.384 92.8486H142.287V174.295H165.384V92.8486Z" fill="#4C5AFF"/>
<path d="M345.054 92.8486H321.955V174.295H345.054V92.8486Z" fill="#4C5AFF"/>
<path d="M343.915 25.6068L336.811 27.7383C345.362 14.5951 361.18 14.4299 370.207 20.3041C376.11 24.1413 380.258 30.0268 381.884 36.8734L375.707 38.3427C374.458 33.0892 371.277 28.5731 366.747 25.6262C359.817 21.1206 350.854 21.1117 343.915 25.6068Z" fill="#4C5AFF"/>
<path d="M375.55 56.3426C382.813 45.1744 379.647 30.2291 368.477 22.9632C357.306 15.6981 342.363 18.8645 335.098 30.0335L375.55 56.3426Z" fill="#848EFF"/>
<path d="M377.402 62.9828L332.613 33.8554L335.065 30.0864L381.672 60.3985L377.402 62.9828Z" fill="#4C5AFF"/>
<path d="M336.811 27.7383C336.206 28.4657 335.627 29.2219 335.099 30.0338L375.551 56.342C376.077 55.5309 376.535 54.6936 376.953 53.8446L336.811 27.7383Z" fill="#F5DE94"/>
<path d="M356.143 38.4326L354.036 41.6698L357.223 43.7451L359.331 40.508L356.143 38.4326Z" fill="#4C5AFF"/>
<path opacity="0.3" d="M132.641 173.295C132.641 174.294 121.034 175.104 106.716 175.104C92.398 175.104 80.7903 174.294 80.7903 173.295C80.7903 172.297 92.398 171.487 106.716 171.487C121.034 171.486 132.641 172.296 132.641 173.295Z" fill="black"/>
<path d="M116.176 136.258L113.201 137.491L127.994 173.191L130.969 171.958L116.176 136.258Z" fill="#4262D8"/>
<path d="M95.7205 157.89L79.5845 171.036L80.5066 173.263L101.212 171.143L126.097 168.596L120.605 155.342L115.113 142.089L95.7205 157.89Z" fill="#4C5AFF"/>
<g clip-path="url(#clip1_42_8354)">
<rect x="136.258" y="120.583" width="214.637" height="25.3223" rx="4.8233" fill="#E8EAFF"/>
<path d="M388.175 77.845L301.306 164.714L319.695 183.103L406.564 96.2342L388.175 77.845Z" fill="url(#paint4_linear_42_8354)"/>
<path d="M316.857 77.845L229.989 164.714L248.378 183.103L335.247 96.2342L316.857 77.845Z" fill="url(#paint5_linear_42_8354)"/>
<path d="M245.54 77.845L158.671 164.714L177.06 183.103L263.929 96.2342L245.54 77.845Z" fill="url(#paint6_linear_42_8354)"/>
<path d="M174.222 77.845L87.3535 164.714L105.743 183.103L192.612 96.2342L174.222 77.845Z" fill="url(#paint7_linear_42_8354)"/>
</g>
<rect x="136.409" y="120.733" width="214.335" height="25.0209" rx="4.67257" stroke="#4C5AFF" stroke-width="0.301456"/>
<path d="M406.6 131.982L370.188 118.171L384 154.583L390.278 138.26L406.6 131.982Z" fill="#4C5AFF" stroke="#4C5AFF" stroke-width="3.20258" stroke-linecap="round" stroke-linejoin="round"/>
<defs>
<filter id="filter0_f_42_8354" x="216.446" y="0" width="295.427" height="245.988" filterUnits="userSpaceOnUse" color-interpolation-filters="sRGB">
<feFlood flood-opacity="0" result="BackgroundImageFix"/>
<feBlend mode="normal" in="SourceGraphic" in2="BackgroundImageFix" result="shape"/>
<feGaussianBlur stdDeviation="35.2704" result="effect1_foregroundBlur_42_8354"/>
</filter>
<linearGradient id="paint0_linear_42_8354" x1="370.27" y1="48.1522" x2="393.279" y2="71.1604" gradientUnits="userSpaceOnUse">
<stop stop-color="#A3ABFF"/>
<stop offset="1" stop-color="#5B68FF"/>
</linearGradient>
<linearGradient id="paint1_linear_42_8354" x1="281.039" y1="48.1522" x2="304.047" y2="71.1604" gradientUnits="userSpaceOnUse">
<stop stop-color="#A3ABFF"/>
<stop offset="1" stop-color="#5B68FF"/>
</linearGradient>
<linearGradient id="paint2_linear_42_8354" x1="191.808" y1="48.1522" x2="214.817" y2="71.1604" gradientUnits="userSpaceOnUse">
<stop stop-color="#A3ABFF"/>
<stop offset="1" stop-color="#5B68FF"/>
</linearGradient>
<linearGradient id="paint3_linear_42_8354" x1="102.577" y1="48.1522" x2="125.586" y2="71.1604" gradientUnits="userSpaceOnUse">
<stop stop-color="#A3ABFF"/>
<stop offset="1" stop-color="#5B68FF"/>
</linearGradient>
<linearGradient id="paint4_linear_42_8354" x1="344.741" y1="121.279" x2="363.13" y2="139.669" gradientUnits="userSpaceOnUse">
<stop stop-color="#A3ABFF"/>
<stop offset="1" stop-color="#5B68FF"/>
</linearGradient>
<linearGradient id="paint5_linear_42_8354" x1="273.423" y1="121.279" x2="291.812" y2="139.669" gradientUnits="userSpaceOnUse">
<stop stop-color="#A3ABFF"/>
<stop offset="1" stop-color="#5B68FF"/>
</linearGradient>
<linearGradient id="paint6_linear_42_8354" x1="202.106" y1="121.279" x2="220.495" y2="139.669" gradientUnits="userSpaceOnUse">
<stop stop-color="#A3ABFF"/>
<stop offset="1" stop-color="#5B68FF"/>
</linearGradient>
<linearGradient id="paint7_linear_42_8354" x1="130.788" y1="121.279" x2="149.177" y2="139.669" gradientUnits="userSpaceOnUse">
<stop stop-color="#A3ABFF"/>
<stop offset="1" stop-color="#5B68FF"/>
</linearGradient>
<clipPath id="clip0_42_8354">
<rect x="116.965" y="33.7631" width="253.462" height="58.9612" rx="4.8233" fill="white"/>
</clipPath>
<clipPath id="clip1_42_8354">
<rect x="136.258" y="120.583" width="214.637" height="25.3223" rx="4.8233" fill="white"/>
</clipPath>
</defs>
</svg>
